<?xml version="1.0" encoding="utf-8"?>
<!DOCTYPE svg PUBLIC "-//W3C//DTD SVG 1.0//EN" "http://www.w3.org/TR/2001/REC-SVG-20010904/DTD/svg10.dtd">
<svg version="1.0" xmlns="http://www.w3.org/2000/svg" width="693px" height="693px" viewBox="0 0 693 693" preserveAspectRatio="xMidYMid meet">
 <g fill="#000000">
  <path d="M297.44 691.65 c-66.19 -9.20 -123.37 -34.65 -174.60 -77.76 -8.93 -7.51 -27.81 -26.12 -36.75 -36.27 -23.08 -26.19 -41.82 -55.02 -56.44 -86.96 -13.54 -29.51 -21.66 -56.37 -27.48 -90.69 -1.69 -10.35 -1.76 -11.03 -1.96 -50.55 -0.27 -33.50 -0.14 -41.42 0.81 -48.39 10.69 -83.99 51.23 -160.66 114.24 -216.16 46.70 -41.15 103.61 -69.10 163.57 -80.40 22.74 -4.33 24.57 -4.47 68.35 -4.47 39.45 0 40.47 0.07 51.77 1.69 67.27 9.88 127.03 37.56 179.34 83.17 60.91 53.06 101.99 129.33 113.29 210.34 1.29 9.20 1.42 13.26 1.42 49.94 0 36.68 -0.14 40.74 -1.42 49.94 -8.66 61.92 -34.72 122.02 -74.24 171.29 -20.71 25.72 -47.51 50.82 -73.50 68.76 -37.42 25.78 -79.38 43.65 -122.90 52.38 -26.87 5.35 -28.83 5.48 -74.38 5.41 -34.85 -0.07 -41.55 -0.27 -49.13 -1.29z m-30.25 -153.56 c5.28 -2.71 6.29 -5.01 11.64 -26.46 4.26 -17.05 13.81 -52.38 20.91 -77.49 2.23 -7.78 3.93 -14.28 3.79 -14.41 -0.27 -0.27 -22.94 -6.84 -23.08 -6.70 -0.41 0.47 -27.75 105.10 -29.37 112.34 -0.61 2.77 -0.54 3.72 0.54 6.09 3.05 6.63 9.81 9.54 15.57 6.63z m143.61 -129.06 c73.16 -7.58 130.95 -42.09 146.11 -87.30 5.75 -17.12 5.21 -31.13 -1.62 -45.28 -11.78 -24.16 -36.41 -37.15 -70.72 -37.09 -40.81 0 -83.44 17.19 -122.29 49.47 -20.44 16.92 -37.76 35.94 -51.50 56.44 l-3.52 5.21 5.62 2.10 c10.96 4.26 16.92 6.16 17.39 5.62 0.27 -0.27 2.30 -2.98 4.47 -5.96 15.90 -21.86 42.91 -48.79 62.87 -62.74 25.45 -17.73 49.47 -27.61 73.56 -30.25 13.81 -1.56 31.33 -0.47 40.13 2.37 13.60 4.47 22.54 13.26 25.72 25.38 1.56 5.75 1.35 20.10 -0.34 26.19 -5.62 20.30 -25.92 41.21 -52.92 54.41 -29.91 14.69 -68.56 21.99 -108.82 20.57 -48.52 -1.76 -84.19 -13.20 -106.45 -34.18 -10.15 -9.61 -16.72 -22.40 -16.72 -32.55 l0.07 -3.72 11.30 -7.58 c6.23 -4.13 20.57 -13.67 31.94 -21.25 34.72 -23.01 41.21 -27.88 43.72 -32.55 1.22 -2.37 1.22 -3.52 -0.20 -6.43 -1.62 -3.52 -5.82 -6.29 -9.47 -6.29 -2.57 0 -4.06 0.74 -13.26 6.97 -5.62 3.86 -23.35 15.77 -39.39 26.53 -15.97 10.76 -34.99 23.62 -42.23 28.56 -10.42 7.11 -13.60 9 -15.43 9 -2.17 0 -2.23 -0.07 -2.23 -2.98 0 -1.69 1.35 -7.38 2.98 -12.72 1.69 -5.35 6.70 -22.33 11.23 -37.76 4.47 -15.43 10.15 -34.79 12.52 -42.97 16.17 -55.49 17.39 -60.10 16.58 -62.94 -1.08 -3.52 -5.28 -7.58 -8.59 -8.19 -3.52 -0.68 -7.85 1.76 -10.08 5.55 -1.02 1.69 -4.87 14.41 -9.75 31.88 -8.53 30.66 -35.26 124.39 -40.27 140.97 -1.62 5.41 -3.93 13.20 -5.08 17.26 -1.15 4.13 -5.14 17.93 -8.87 30.72 -3.65 12.86 -6.70 24.16 -6.70 25.11 0 2.64 3.52 7.72 6.29 9 3.18 1.56 5.62 1.42 8.32 -0.27 3.72 -2.30 5.41 -6.16 9.41 -21.66 3.45 -13.13 5.28 -19.83 9.14 -33.09 1.08 -3.65 1.69 -4.67 3.52 -5.68 1.22 -0.74 5.96 -3.65 10.49 -6.63 6.84 -4.40 8.66 -5.28 10.96 -5.28 1.56 0 2.77 0.34 2.77 0.74 0 0.41 1.15 3.25 2.64 6.29 14.14 30.25 50.89 54.14 97.86 63.62 24.23 4.87 52.65 6.16 78.84 3.38z"/>
 </g>
 <g fill="#ffffff">
  <path d="M0.14 524.35 c0.07 -92.78 0.20 -167.02 0.34 -164.99 2.71 48.19 12.38 88.18 31.20 129.26 18.61 40.67 42.70 74.78 75.66 106.93 33.91 33.16 69.64 56.44 112.61 73.43 32.96 13.06 64.22 19.96 105.57 23.28 4.13 0.34 -62.67 0.61 -159.17 0.68 l-166.35 0.07 0.14 -168.65z"/>
  <path d="M373.23 691.92 c32.82 -2.77 64.16 -9.34 90.75 -18.88 33.70 -12.18 67.07 -30.52 93.19 -51.30 56.58 -44.87 95.76 -100.90 118.64 -169.32 8.59 -25.92 14.55 -56.37 16.45 -84.93 0.34 -4.87 0.61 61.72 0.68 158.56 l0.07 166.96 -164.93 -0.07 c-139.48 -0.14 -163.44 -0.27 -154.84 -1.02z"/>
  <path d="M259.88 541.47 c-7.51 -1.56 -12.18 -7.72 -11.30 -14.96 0.41 -3.38 29.30 -115.45 30.05 -116.33 0.07 -0.14 6.43 1.49 14.08 3.65 8.93 2.50 13.87 4.26 13.87 4.80 0 0.47 -2.44 9.34 -5.35 19.69 -7.72 26.93 -15.70 56.51 -20.44 75.46 -5.28 21.18 -6.36 23.69 -11.44 26.26 -2.98 1.49 -6.43 2.03 -9.47 1.42z"/>
  <path d="M364.10 412.15 c-32.35 -2.23 -59.01 -9.07 -82.56 -21.05 -23.15 -11.78 -40.88 -28.63 -49.47 -47.03 -1.49 -3.05 -2.64 -5.89 -2.64 -6.29 0 -1.42 -1.49 -0.74 -9.68 4.53 -4.53 2.98 -9.27 5.89 -10.49 6.63 -1.83 1.02 -2.44 2.03 -3.52 5.68 -3.86 13.26 -5.68 19.96 -9.14 33.09 -2.17 8.39 -4.47 15.70 -5.41 17.39 -4.74 8.05 -15.90 8.05 -20.91 0.07 -3.05 -4.94 -2.77 -7.11 4.94 -33.63 3.65 -12.86 7.72 -26.66 8.87 -30.79 1.15 -4.06 3.45 -11.84 5.08 -17.26 5.35 -17.87 33.23 -115.59 40.54 -142.12 3.93 -14.35 7.99 -27.68 8.93 -29.64 2.57 -5.14 6.23 -7.17 12.05 -6.77 3.45 0.20 4.80 0.68 6.84 2.17 2.98 2.30 5.01 6.43 5.08 10.35 0 2.57 -5.08 21.05 -17.26 62.80 -2.37 8.19 -8.05 27.54 -12.52 42.97 -4.53 15.43 -9.61 32.48 -11.23 37.83 -1.69 5.41 -2.91 10.22 -2.84 10.76 0.14 0.54 4.94 -2.37 13.40 -8.12 7.24 -5.01 26.33 -17.87 42.30 -28.63 16.04 -10.76 33.70 -22.67 39.32 -26.46 8.39 -5.68 10.76 -6.97 13.54 -7.31 8.12 -1.08 14.48 4.26 14.48 12.11 0 7.44 -2.71 9.68 -44.67 37.49 -44.40 29.44 -43.24 28.69 -43.31 30.52 0 2.71 1.76 8.46 3.99 13.33 7.17 15.23 23.21 28.49 45.88 37.76 45.88 18.68 117.96 18.07 165.53 -1.42 19.42 -7.92 31.81 -15.63 44.06 -27.34 15.63 -14.89 22.74 -28.83 22.74 -44.33 0 -11.30 -2.91 -18.88 -9.81 -25.78 -6.50 -6.56 -14.82 -10.29 -27.07 -12.11 -35.19 -5.28 -76.61 9.81 -114.71 41.82 -10.15 8.53 -28.42 27 -37.29 37.70 -4.87 5.82 -14.08 17.93 -15.84 20.84 -0.14 0.20 -20.71 -7.24 -24.84 -9 -1.42 -0.54 -2.57 -1.29 -2.57 -1.62 0 -0.95 7.78 -12.52 13.40 -20.03 7.44 -9.88 15.09 -18.48 25.24 -28.42 44.26 -43.18 92.38 -65.44 141.71 -65.58 6.36 0 14.21 0.34 17.46 0.81 27.27 3.99 45.75 16.04 55.63 36.34 3.72 7.78 5.01 12.99 5.48 22.67 1.76 33.30 -20.78 65.65 -60.98 87.78 -24.97 13.74 -55.56 22.74 -89.33 26.26 -12.38 1.29 -36.95 1.83 -48.39 1.02z"/>
  <path d="M0.14 167.70 l-0.14 -167.70 167.02 0.07 c91.84 0.07 163.23 0.34 158.70 0.68 -86.63 5.48 -165.94 41.76 -226.71 103.54 -10.42 10.63 -17.26 18.34 -25.72 29.17 -41.28 52.72 -66.93 119.38 -71.94 186.65 -0.34 5.41 -0.81 11.03 -0.88 12.52 -0.14 1.49 -0.27 -72.75 -0.34 -164.93z"/>
  <path d="M692.32 328.09 c0 -6.16 -1.15 -19.02 -2.77 -30.66 -8.05 -59.35 -33.43 -118.77 -70.72 -165.81 -39.05 -49.20 -92.31 -87.98 -150.51 -109.63 -34.31 -12.72 -64.90 -19.02 -104.56 -21.52 -1.83 -0.14 71.47 -0.27 162.96 -0.34 l166.28 -0.14 0 166.14 c0 91.36 -0.14 166.14 -0.34 166.14 -0.20 0 -0.34 -1.89 -0.34 -4.20z"/>
 </g>
</svg>